<?xml version="1.0" encoding="UTF-8"?>
<svg id="Layer_2" data-name="Layer 2" xmlns="http://www.w3.org/2000/svg" viewBox="0 0 1963.53 354.62">
  <defs>
    <style>
      .cls-1 {
        fill: #c2321a;
      }

      .cls-2 {
        fill: #9a3135;
      }

      .cls-3 {
        fill: #ff4425;
      }

      .cls-4 {
        fill: #fffcf5;
      }

      .cls-5 {
        fill: #c4bdb5;
      }

      .cls-6 {
        fill: #a03439;
      }

      .cls-7 {
        fill: #050404;
      }
    </style>
  </defs>
  <g id="Layer_1-2" data-name="Layer 1">
    <g>
      <g>
        <path d="M403.4,200.27c17.45,1.8,36.24,1.69,52.79-5.14,8.78-3.62,13.73-6.26,10.62-16.44-3.16-10.31-27.44-40.21-26.78-46.57l31.59-37.46c18.21,29.73,28.11,66.77,20.83,101.51-13.67,65.22-81.59,80.41-133.56,46.94-99.23,57.02-234.28,39.14-330.55-16.18-4.95-2.84-23.36-13.39-26.22-16.32-1.07-1.1-2.18-1.96-2.12-3.7l36.01-62.37c41.88,25.9,87.44,46.49,135.59,57.95,48.76,11.6,100.3,14.95,149.65,5.1-31.24-33.68-21.45-103.68,25.23-117.78,58.76-17.75,92.72,70.3,56.92,110.45ZM350.21,143.43c-20.86,3.23-32.31,23.49-12.86,38.56,30.3,23.47,79.26-8.58,48.48-32.34-9.39-7.25-24.13-8-35.62-6.22Z"/>
        <path class="cls-3" d="M1107.55,173.9c-23.62-6.69-54.53-25.34-79.59-18.73-11.83,3.13-11.5,16.06-15.25,17.09l-18.06-2.84c5.12-41.65,24.49-75.99,71.9-66.76,38.83,7.56,73.91,39.57,115.81,37.49l-16.33,52.61c-34.98-.75-56.34,28.52-83.9,44.46-31.14,18.01-79.31,34.46-112.46,14.42-2.48,13.84-3.8,27.09-8.79,40.37-31.36,83.58-163.42,86.33-177.37-9.01-5.46-37.32,6.91-75.36,27.19-106.3l18.12,4.53c.35,5.37-4.03,8.88-6.14,13.65-23.21,52.47-1.72,98.59,59.5,93.24,78.21-6.84,59.2-90.76,50.56-145.53-5.22-33.07-12.69-64.15-24.8-95.37l41.92-30.29c5.61,26.24,10.75,53.35,13.75,80.12,2.51,22.37,1.78,46.78,4.76,68.59,1.67,12.21,5.44,24.25,17.42,29.52,26.13,11.5,94-2.76,118.38-18.05,1.29-.81,3.25-1.4,3.38-3.21Z"/>
        <path class="cls-3" d="M1309.26,242.83c-14.33-1.45-34.7-9.43-45.51-19.04-46.18-41.04,4.52-152.05,70.19-111.26,48.96,30.41,52.24,123.24,25.65,168.89-28.99,49.75-83.05,50.94-131.69,30.28l17.68-62.89c29.25,6.83,60.07,16.66,89.33,3.53,4.8-2.16,9.14-4.72,11.76-9.51-12.03-.88-25.58,1.2-37.41,0ZM1356.93,192.93c-6.26-26.61-51.55-43.88-72.63-26.4-6.57,5.45-7.2,14.31-1.52,20.62,11.96,13.3,57.8,11.99,74.15,5.78Z"/>
        <path d="M646.94,188.55c17.5,11.73,79.24,15.67,93.2,1.53,9.07-9.19-2.93-23.2-10.36-29.37-18.91-15.71-46.28-19.98-69.65-24.98l17.69-57.11c36.84,6.71,72.58,30.57,83.95,67.72,6.65,21.73,5.97,53.01-3.09,74.02-20.88,48.42-80.91,51.54-123.59,32.01l11.86-63.8Z"/>
        <path d="M525.36,262.1c21.72,1.77,43.02,2.63,61.28-11.33,35.07-26.81-5.68-65.74-18.54-93.78l30.38-37.38c22.08,40.52,32.68,90.99,23.06,136.73-12.62,60-63.54,96.29-121.17,62.08l24.99-56.3Z"/>
        <path class="cls-3" d="M1351.12,320.51c-1.49-2.15,11.65-19.34,13.91-23.38,6.25-11.16,10.93-23.17,15.56-35.06,28.43,6.1,73.89-11.91,63.56-47.05-5.89-20.04-21.8-39.64-31.49-58.03l30.1-37.36c20.92,33.51,29.83,78.74,27.2,118.12-4.28,64.08-53.02,117.31-118.83,82.75Z"/>
        <path d="M535.42,18.37c4.52,29.05,11.94,57.94,14.67,87.3,3.18,34.13-.39,72.95-8.05,106.36-1.98,8.65-6.51,27.73-10.68,34.8-3.73,6.34-14.4,2.23-20.88,3.33,1.3-17.31,5.23-34.65,5.93-52.02,1.43-35.51-4.45-79.37-12.23-114.05-1.56-6.97-10.3-31.26-9.87-35.6.2-2.03,1.06-2.48,2.2-3.74,7.73-8.56,26.39-16,34.5-25.63l4.39-.74Z"/>
        <path class="cls-3" d="M1214.4,249.92c-3.48-.03-19.24,1.87-19.92-1.88,12.76-66.49,3.83-135.52-15.96-199.63l39.76-30.02c2.51.58,6.53,24.8,7.39,29.3,12.66,66.09,13.31,138.92-11.28,202.23Z"/>
        <path d="M481.14,310.3c-39.29-7.05-75.87,9.51-110,26.41l-7.47-38.69c36.11-15.42,97.08-35.06,117.46,12.28Z"/>
        <path d="M343.46,18.59c4.31-2.77,32.77,5.98,38.81,8.54.99,1.42-8.09,32.11-9.61,33.12-3.83,2.55-36.73-4.14-39.01-8.05l9.81-33.6Z"/>
      </g>
      <g>
        <path class="cls-7" d="M1625.33,322.74c-18.07-2.48-36.4-3.79-54.29-7.09-6.24-2.57-5.83-7.95-6.57-13.7l-.04-149.07-32.37-4.39c-3.79-1.53-6.43-5.13-6.41-9.28.01-2.74,1-3.8,2.07-6.09,10.72-23.05,25.82-45.49,36.78-68.61l4.23-3.88c36.55-17.77,71.55-38.92,108.04-56.65,6.94-3.38,14.72-4.64,22.38-3.65l209.92,27.1c3.98,1.08,9.68,9.6,12.38,13.1,13.97,18.14,26.62,37.39,40.54,55.58,2.67,4.35,1.84,9.1-2.13,12.27l-44.44,23.45c-.27,1.49-.52,2.93-.61,4.46-1.35,22.29-.4,48.01-.58,70.65-.17,21.28,1.67,45.86.04,66.64-.42,5.29-2.03,8.63-6.96,10.99-38.91,18.75-76.85,39.8-116.11,57.61-12.56.37-24.86-2.74-37.35-3.47l-128.52-15.97ZM1697.1,76.38l82.59,10.93,9.16.61,88.92-46.29-180.67-23.73v58.49ZM1601.55,63.35l78.76,10.71V21.37s-78.76,41.98-78.76,41.98ZM1802.5,100.99l36.48,49.83,102.22-52.43-.02-1.72-36.6-49.18-102.08,53.5ZM1547.71,132.84c3.47,1.01,7.21,1.44,10.79,1.94,61.04,8.51,122.44,14.75,183.49,23.24l4.64.02,28.63-52.47v-1.37s-186.23-24.84-186.23-24.84l-12.25-1.11-29.06,54.6ZM1896.6,270.37l1.44-129.72-56.03,28.79c-4.05,2.04-8.19,1.65-11.71-1.29l-32.42-44.3-.58,196.3,99.31-49.79ZM1582.22,299.94l198.26,24.28c.57-55.09-.74-110.25-.02-165.35.02-1.79.6-3.37.63-5.16.1-5.66.65-14.43-.03-19.73-.4-3.17-1.63,1.4-2,2.07-6.05,10.95-12.43,24.48-19.19,34.67-5.28,7.95-10.06,4.93-18.41,4.61l-160.18-20.2v142.74c.04.28.69,2,.94,2.06Z"/>
        <path class="cls-3" d="M1576.77,78.24l-29.06,54.6c3.47,1.01,7.21,1.44,10.79,1.94,61.04,8.51,122.44,14.75,183.49,23.24l4.64.02,28.63-52.47v-1.37s-186.23-24.84-186.23-24.84l-12.25-1.11Z"/>
        <polygon class="cls-2" points="1697.1 17.89 1697.1 76.38 1779.69 87.31 1788.85 87.92 1877.77 41.63 1697.1 17.89"/>
        <polygon class="cls-1" points="1904.59 47.49 1802.5 100.99 1838.99 150.82 1941.21 98.39 1941.18 96.67 1904.59 47.49"/>
        <polygon class="cls-6" points="1680.31 21.37 1601.55 63.35 1680.31 74.06 1680.31 21.37"/>
        <path class="cls-4" d="M1581.29,155.13l160.18,20.2c8.35.32,13.13,3.34,18.41-4.61,6.76-10.19,13.13-23.72,19.19-34.67.37-.67,1.59-5.24,2-2.07.68,5.3.12,14.07.03,19.73-.03,1.79-.61,3.37-.63,5.16-.71,55.1.59,110.26.02,165.35l-198.26-24.28c-.25-.06-.9-1.78-.94-2.06v-142.74ZM1731.56,233.31c5.64-7.08,2.92-16.58-6.92-15.02-3.09.49-8.27,6.24-11.38,8.31-17.46,11.64-39.14,11.84-54.9-2.91-3.74-3.5-7.68-11.47-12.65-12.25-6.65-1.05-10.58,4.79-9.28,11.03.9,4.33,10.39,14.02,13.97,17.01,22.38,18.7,62.58,17.17,81.16-6.16Z"/>
        <path class="cls-5" d="M1797.29,320.17l99.31-49.79,1.44-129.72-56.03,28.79c-4.05,2.04-8.19,1.65-11.71-1.29l-32.42-44.3-.58,196.3Z"/>
        <path class="cls-7" d="M1650.4,239.47c22.38,18.7,62.58,17.17,81.16-6.16,5.64-7.08,2.92-16.58-6.92-15.02-3.09.49-8.27,6.24-11.38,8.31-17.46,11.64-39.14,11.84-54.9-2.91-3.74-3.5-7.68-11.47-12.65-12.25-6.65-1.05-10.58,4.79-9.28,11.03.9,4.33,10.39,14.02,13.97,17.01Z"/>
      </g>
    </g>
  </g>
</svg>