<?xml version="1.0" encoding="UTF-8"?>
<svg id="Layer_2" data-name="Layer 2" xmlns="http://www.w3.org/2000/svg" viewBox="0 0 2004.67 460.4">
  <g id="Layer_1-2" data-name="Layer 1">
    <g>
      <path d="M549.98,249.97c23.8,2.46,49.41,2.3,71.97-7,11.97-4.93,18.72-8.53,14.47-22.41s-37.41-54.82-36.51-63.49l43.07-51.07c24.83,40.53,38.32,91.03,28.4,138.4-18.63,88.92-111.24,109.63-182.09,63.99-135.29,77.74-319.4,53.37-450.65-22.05-6.74-3.87-31.84-18.26-35.75-22.25-1.46-1.5-2.98-2.67-2.89-5.04l49.09-85.04c57.09,35.3,119.21,63.39,184.86,79.01,66.47,15.82,136.75,20.39,204.02,6.96-42.6-45.92-29.24-141.35,34.4-160.58,80.11-24.2,126.41,95.84,77.6,150.58ZM477.46,172.47c-28.43,4.4-44.05,32.02-17.53,52.57,41.31,32,108.06-11.7,66.09-44.09-12.81-9.89-32.9-10.9-48.56-8.48Z"/>
      <path d="M1509.98,214.01c-32.2-9.12-74.34-34.55-108.51-25.53-16.13,4.26-15.67,21.9-20.79,23.3l-24.62-3.87c6.98-56.79,33.38-103.6,98.03-91.02,52.94,10.31,100.77,53.95,157.89,51.11l-22.26,71.72c-47.69-1.02-76.82,38.88-114.39,60.61-42.46,24.56-108.13,46.98-153.32,19.66-3.38,18.87-5.18,36.94-11.98,55.04-42.76,113.95-222.79,117.7-241.81-12.28-7.45-50.87,9.43-102.74,37.07-144.92l24.71,6.17c.48,7.33-5.49,12.1-8.37,18.61-31.65,71.54-2.35,134.42,81.11,127.11,106.63-9.33,80.71-123.74,68.92-198.41-7.11-45.09-17.3-87.46-33.81-130.02L1294.99,0c7.65,35.77,14.66,72.74,18.75,109.23,3.42,30.5,2.42,63.78,6.49,93.51,2.27,16.65,7.41,33.06,23.75,40.25,35.63,15.68,128.16-3.76,161.4-24.61,1.76-1.1,4.44-1.91,4.61-4.37Z"/>
      <path d="M1784.98,307.99c-19.53-1.98-47.31-12.86-62.05-25.95-62.96-55.96,6.17-207.3,95.69-151.69,66.76,41.46,71.22,168.02,34.97,230.26-39.52,67.83-113.23,69.45-179.54,41.28l24.1-85.74c39.88,9.31,81.9,22.72,121.79,4.81,6.55-2.94,12.45-6.44,16.04-12.96-16.4-1.2-34.87,1.63-51,0ZM1849.98,239.96c-8.54-36.28-70.28-59.83-99.02-35.99-8.96,7.43-9.81,19.5-2.07,28.11,16.31,18.13,78.8,16.34,101.09,7.89Z"/>
      <path d="M882,234c23.86,16,108.03,21.36,127.06,2.08,12.36-12.52-4-31.63-14.13-40.05-25.78-21.42-63.1-27.23-94.96-34.06l24.12-77.87c50.23,9.15,98.95,41.68,114.45,92.32,9.07,29.63,8.15,72.27-4.21,100.92-28.47,66.01-110.3,70.27-168.49,43.63l16.16-86.99Z"/>
      <path d="M716.26,334.27c29.61,2.42,58.65,3.58,83.55-15.45,47.81-36.55-7.74-89.62-25.28-127.86l41.42-50.96c30.11,55.24,44.55,124.06,31.44,186.4-17.2,81.8-86.63,131.28-165.2,84.63l34.07-76.76Z"/>
      <path d="M1842.06,413.9c-2.03-2.94,15.88-26.37,18.96-31.87,8.52-15.22,14.9-31.6,21.22-47.8,38.76,8.31,100.74-16.24,86.65-64.14-8.03-27.32-29.72-54.04-42.93-79.12l41.03-50.93c28.52,45.69,40.67,107.35,37.08,161.04-5.84,87.36-72.28,159.94-162,112.82Z"/>
      <path d="M729.97,1.98c6.16,39.61,16.28,78.99,20,119.02,4.33,46.53-.53,99.45-10.97,145.01-2.7,11.8-8.88,37.8-14.56,47.44-5.09,8.64-19.64,3.04-28.47,4.55,1.77-23.59,7.14-47.24,8.09-70.92,1.95-48.41-6.06-108.21-16.67-155.49-2.13-9.5-14.04-42.62-13.45-48.54.28-2.77,1.44-3.38,3-5.1,10.54-11.67,35.97-21.82,47.04-34.95l5.99-1.01Z"/>
      <path d="M1655.65,317.65c-4.74-.05-26.23,2.56-27.15-2.57,17.4-90.64,5.22-184.77-21.76-272.16l54.21-40.92c3.42.8,8.9,33.81,10.08,39.94,17.26,90.11,18.14,189.39-15.37,275.71Z"/>
      <path d="M655.97,399.98c-53.56-9.61-103.44,12.97-149.97,36.01l-10.18-52.75c49.23-21.02,132.35-47.79,160.14,16.75Z"/>
      <path d="M468.26,2.28c5.87-3.77,44.67,8.16,52.91,11.64,1.35,1.93-11.03,43.77-13.1,45.15-5.22,3.48-50.07-5.65-53.18-10.97l13.37-45.81Z"/>
    </g>
  </g>
</svg>